<?xml version="1.0" ?><svg viewBox="0 0 24 24" xmlns="http://www.w3.org/2000/svg"><g data-name="6. Camera" id="_6._Camera"><path d="M20,4H17.721l-.316-.949A3,3,0,0,0,14.559,1H9.441A3,3,0,0,0,6.6,3.052L6.279,4H4A4,4,0,0,0,0,8V19a4,4,0,0,0,4,4H20a4,4,0,0,0,4-4V8A4,4,0,0,0,20,4Zm2,15a2,2,0,0,1-2,2H4a2,2,0,0,1-2-2V8A2,2,0,0,1,4,6H7a1,1,0,0,0,.949-.684l.544-1.632A1,1,0,0,1,9.441,3h5.118a1,1,0,0,1,.948.684l.544,1.632A1,1,0,0,0,17,6h3a2,2,0,0,1,2,2Z"/><path d="M12,7a6,6,0,1,0,6,6A6.006,6.006,0,0,0,12,7Zm0,10a4,4,0,1,1,4-4A4,4,0,0,1,12,17Z"/></g></svg>